<svg width="732" height="1750" viewBox="0 0 732 1750" class="keymap" xmlns="http://www.w3.org/2000/svg" xmlns:xlink="http://www.w3.org/1999/xlink">
<style>/* inherit to force styles through use tags */
svg path {
    fill: inherit;
}

/* font and background color specifications */
svg.keymap {
    font-family: SFMono-Regular,Consolas,Liberation Mono,Menlo,monospace;
    font-size: 14px;
    font-kerning: normal;
    text-rendering: optimizeLegibility;
    fill: #24292e;
}

/* default key styling */
rect.key {
    fill: #f6f8fa;
}

rect.key, rect.combo {
    stroke: #c9cccf;
    stroke-width: 1;
}

/* default key side styling, only used is draw_key_sides is set */
rect.side {
    filter: brightness(90%);
}

/* color accent for combo boxes */
rect.combo, rect.combo-separate {
    fill: #cdf;
}

/* color accent for held keys */
rect.held, rect.combo.held {
    fill: #fdd;
}

/* color accent for ghost (optional) keys */
rect.ghost, rect.combo.ghost {
    stroke-dasharray: 4, 4;
    stroke-width: 2;
}

text {
    text-anchor: middle;
    dominant-baseline: middle;
}

/* styling for layer labels */
text.label {
    font-weight: bold;
    text-anchor: start;
    stroke: white;
    stroke-width: 4;
    paint-order: stroke;
}

/* styling for optional footer */
text.footer {
    text-anchor: end;
    dominant-baseline: auto;
    stroke: white;
    stroke-width: 4;
    paint-order: stroke;
}

/* styling for combo tap, and key hold/shifted label text */
text.combo, text.hold, text.shifted {
    font-size: 11px;
}

text.hold {
    text-anchor: middle;
    dominant-baseline: auto;
}

text.shifted {
    text-anchor: middle;
    dominant-baseline: hanging;
}

text.layer-activator {
    text-decoration: underline;
}

/* styling for hold/shifted label text in combo box */
text.combo.hold, text.combo.shifted {
    font-size: 8px;
}

/* lighter symbol for transparent keys */
text.trans {
    fill: #7b7e81;
}

/* styling for combo dendrons */
path.combo {
    stroke-width: 1;
    stroke: gray;
    fill: none;
}

/* Start Tabler Icons Cleanup */
/* cannot use height/width with glyphs */
.icon-tabler > path {
    fill: inherit;
    stroke: inherit;
    stroke-width: 2;
}
/* hide tabler's default box */
.icon-tabler > path[stroke="none"][fill="none"] {
    visibility: hidden;
}
/* End Tabler Icons Cleanup */

@media (prefers-color-scheme: dark) {
svg.keymap { fill: #d1d6db; }
rect.key { fill: #3f4750; }
rect.key, rect.combo { stroke: #60666c; }
rect.combo, rect.combo-separate { fill: #1f3d7a; }
rect.held, rect.combo.held { fill: #854747; }
text.label, text.footer { stroke: black; }
text.trans { fill: #7e8184; }
path.combo { stroke: #7f7f7f; }

}

svg.keymap { background-color: #FFF; }</style>
<g transform="translate(30, 0)" class="layer-L0">
<text x="0" y="28" class="label" id="L0">L0:</text>
<g transform="translate(0, 56)">
<g transform="translate(28, 81)" class="key ghost keypos-0">
<rect rx="6" ry="6" x="-26" y="-26" width="52" height="52" class="key ghost"/>
</g>
<g transform="translate(84, 46)" class="key keypos-1">
<rect rx="6" ry="6" x="-26" y="-26" width="52" height="52" class="key"/>
<text x="0" y="0" class="key tap">W</text>
</g>
<g transform="translate(140, 28)" class="key keypos-2">
<rect rx="6" ry="6" x="-26" y="-26" width="52" height="52" class="key"/>
<text x="0" y="0" class="key tap">F</text>
</g>
<g transform="translate(196, 44)" class="key keypos-3">
<rect rx="6" ry="6" x="-26" y="-26" width="52" height="52" class="key"/>
<text x="0" y="0" class="key tap">P</text>
</g>
<g transform="translate(252, 52)" class="key ghost keypos-4">
<rect rx="6" ry="6" x="-26" y="-26" width="52" height="52" class="key ghost"/>
</g>
<g transform="translate(420, 52)" class="key ghost keypos-5">
<rect rx="6" ry="6" x="-26" y="-26" width="52" height="52" class="key ghost"/>
</g>
<g transform="translate(476, 44)" class="key keypos-6">
<rect rx="6" ry="6" x="-26" y="-26" width="52" height="52" class="key"/>
<text x="0" y="0" class="key tap">L</text>
</g>
<g transform="translate(532, 28)" class="key keypos-7">
<rect rx="6" ry="6" x="-26" y="-26" width="52" height="52" class="key"/>
<text x="0" y="0" class="key tap">U</text>
</g>
<g transform="translate(588, 46)" class="key keypos-8">
<rect rx="6" ry="6" x="-26" y="-26" width="52" height="52" class="key"/>
<text x="0" y="0" class="key tap">Y</text>
</g>
<g transform="translate(644, 81)" class="key ghost keypos-9">
<rect rx="6" ry="6" x="-26" y="-26" width="52" height="52" class="key ghost"/>
</g>
<g transform="translate(28, 137)" class="key keypos-10">
<rect rx="6" ry="6" x="-26" y="-26" width="52" height="52" class="key"/>
<text x="0" y="0" class="key tap">A</text>
<text x="0" y="24" class="key hold">LShift</text>
</g>
<g transform="translate(84, 102)" class="key keypos-11">
<rect rx="6" ry="6" x="-26" y="-26" width="52" height="52" class="key"/>
<text x="0" y="0" class="key tap">R</text>
<text x="0" y="24" class="key hold">LCtrl</text>
</g>
<g transform="translate(140, 84)" class="key keypos-12">
<rect rx="6" ry="6" x="-26" y="-26" width="52" height="52" class="key"/>
<text x="0" y="0" class="key tap">S</text>
<text x="0" y="24" class="key hold">LAlt</text>
</g>
<g transform="translate(196, 100)" class="key keypos-13">
<rect rx="6" ry="6" x="-26" y="-26" width="52" height="52" class="key"/>
<text x="0" y="0" class="key tap">T</text>
<text x="0" y="24" class="key hold">LGui</text>
</g>
<g transform="translate(252, 108)" class="key keypos-14">
<rect rx="6" ry="6" x="-26" y="-26" width="52" height="52" class="key"/>
<text x="0" y="0" class="key tap">B</text>
</g>
<g transform="translate(420, 108)" class="key keypos-15">
<rect rx="6" ry="6" x="-26" y="-26" width="52" height="52" class="key"/>
<text x="0" y="0" class="key tap">M</text>
</g>
<g transform="translate(476, 100)" class="key keypos-16">
<rect rx="6" ry="6" x="-26" y="-26" width="52" height="52" class="key"/>
<text x="0" y="0" class="key tap">N</text>
<text x="0" y="24" class="key hold">LGui</text>
</g>
<g transform="translate(532, 84)" class="key keypos-17">
<rect rx="6" ry="6" x="-26" y="-26" width="52" height="52" class="key"/>
<text x="0" y="0" class="key tap">E</text>
<text x="0" y="24" class="key hold">LAlt</text>
</g>
<g transform="translate(588, 102)" class="key keypos-18">
<rect rx="6" ry="6" x="-26" y="-26" width="52" height="52" class="key"/>
<text x="0" y="0" class="key tap">I</text>
<text x="0" y="24" class="key hold">LCtrl</text>
</g>
<g transform="translate(644, 137)" class="key keypos-19">
<rect rx="6" ry="6" x="-26" y="-26" width="52" height="52" class="key"/>
<text x="0" y="0" class="key tap">O</text>
<text x="0" y="24" class="key hold">LShift</text>
</g>
<g transform="translate(28, 193)" class="key keypos-20">
<rect rx="6" ry="6" x="-26" y="-26" width="52" height="52" class="key"/>
<text x="0" y="0" class="key tap">Z</text>
</g>
<g transform="translate(84, 158)" class="key keypos-21">
<rect rx="6" ry="6" x="-26" y="-26" width="52" height="52" class="key"/>
<text x="0" y="0" class="key tap">X</text>
</g>
<g transform="translate(140, 140)" class="key keypos-22">
<rect rx="6" ry="6" x="-26" y="-26" width="52" height="52" class="key"/>
<text x="0" y="0" class="key tap">C</text>
</g>
<g transform="translate(196, 156)" class="key keypos-23">
<rect rx="6" ry="6" x="-26" y="-26" width="52" height="52" class="key"/>
<text x="0" y="0" class="key tap">D</text>
</g>
<g transform="translate(252, 164)" class="key keypos-24">
<rect rx="6" ry="6" x="-26" y="-26" width="52" height="52" class="key"/>
<text x="0" y="0" class="key tap">G</text>
</g>
<g transform="translate(420, 164)" class="key keypos-25">
<rect rx="6" ry="6" x="-26" y="-26" width="52" height="52" class="key"/>
<text x="0" y="0" class="key tap">K</text>
</g>
<g transform="translate(476, 156)" class="key keypos-26">
<rect rx="6" ry="6" x="-26" y="-26" width="52" height="52" class="key"/>
<text x="0" y="0" class="key tap">H</text>
</g>
<g transform="translate(532, 140)" class="key keypos-27">
<rect rx="6" ry="6" x="-26" y="-26" width="52" height="52" class="key"/>
<text x="0" y="0" class="key tap">,</text>
</g>
<g transform="translate(588, 158)" class="key keypos-28">
<rect rx="6" ry="6" x="-26" y="-26" width="52" height="52" class="key"/>
<text x="0" y="0" class="key tap">.</text>
</g>
<g transform="translate(644, 193)" class="key keypos-29">
<rect rx="6" ry="6" x="-26" y="-26" width="52" height="52" class="key"/>
<text x="0" y="0" class="key tap">V</text>
</g>
<g transform="translate(221, 221) rotate(15.0)" class="key keypos-30">
<rect rx="6" ry="6" x="-26" y="-26" width="52" height="52" class="key"/>
<text x="0" y="0" class="key tap">
<tspan x="0" dy="-0.5em">MO</tspan><tspan x="0" dy="1.0em">L1</tspan>
</text>
</g>
<g transform="translate(279, 245) rotate(30.0)" class="key keypos-31">
<rect rx="6" ry="6" x="-26" y="-26" width="52" height="52" class="key"/>
<text x="0" y="0" class="key tap">Space</text>
<text x="0" y="24" class="key hold">MO L4</text>
</g>
<g transform="translate(393, 245) rotate(-30.0)" class="key keypos-32">
<rect rx="6" ry="6" x="-26" y="-26" width="52" height="52" class="key"/>
<text x="0" y="0" class="key tap">Bksp</text>
<text x="0" y="24" class="key hold">MO L3</text>
</g>
<g transform="translate(451, 221) rotate(-15.0)" class="key keypos-33">
<rect rx="6" ry="6" x="-26" y="-26" width="52" height="52" class="key"/>
<text x="0" y="0" class="key tap">Enter</text>
<text x="0" y="24" class="key hold">MO L2</text>
</g>
<g class="combo combopos-0">
<rect rx="6" ry="6" x="493" y="82" width="22" height="20" class="combo"/>
<text x="504" y="92" class="combo tap">Esc</text>
</g>
<g class="combo combopos-1">
<rect rx="6" ry="6" x="157" y="82" width="22" height="20" class="combo"/>
<text x="168" y="92" class="combo tap">Tab</text>
</g>
<g class="combo combopos-2">
<rect rx="6" ry="6" x="157" y="26" width="22" height="20" class="combo"/>
<text x="168" y="36" class="combo tap">Q</text>
</g>
<g class="combo combopos-3">
<rect rx="6" ry="6" x="185" y="62" width="22" height="20" class="combo"/>
<text x="196" y="72" class="combo tap">(</text>
</g>
<g class="combo combopos-4">
<rect rx="6" ry="6" x="465" y="62" width="22" height="20" class="combo"/>
<text x="476" y="72" class="combo tap">)</text>
</g>
<g class="combo combopos-5">
<rect rx="6" ry="6" x="157" y="138" width="22" height="20" class="combo"/>
<text x="168" y="148" class="combo tap">+</text>
</g>
<g class="combo combopos-6">
<rect rx="6" ry="6" x="493" y="138" width="22" height="20" class="combo"/>
<text x="504" y="148" class="combo tap">:</text>
</g>
<g class="combo combopos-7">
<rect rx="6" ry="6" x="101" y="83" width="22" height="20" class="combo"/>
<text x="112" y="93" class="combo tap">&quot;</text>
</g>
<g class="combo combopos-8">
<rect rx="6" ry="6" x="549" y="83" width="22" height="20" class="combo"/>
<text x="560" y="93" class="combo tap">_</text>
</g>
<g class="combo combopos-9">
<rect rx="6" ry="6" x="465" y="118" width="22" height="20" class="combo"/>
<text x="476" y="128" class="combo tap">
<tspan x="476" dy="-0.5em">Sticky</tspan><tspan x="476" dy="1.0em">LSFT</tspan>
</text>
</g>
<g class="combo combopos-10">
<rect rx="6" ry="6" x="17" y="155" width="22" height="20" class="combo"/>
<text x="28" y="165" class="combo tap">Caps</text>
</g>
<g class="combo combopos-11">
<rect rx="6" ry="6" x="241" y="126" width="22" height="20" class="combo"/>
<text x="252" y="136" class="combo tap">&lt;</text>
</g>
<g class="combo combopos-12">
<rect rx="6" ry="6" x="549" y="139" width="22" height="20" class="combo"/>
<text x="560" y="149" class="combo tap">;</text>
</g>
<g class="combo combopos-13">
<rect rx="6" ry="6" x="73" y="64" width="22" height="20" class="combo"/>
<text x="84" y="74" class="combo tap">{</text>
</g>
<g class="combo combopos-14">
<rect rx="6" ry="6" x="577" y="64" width="22" height="20" class="combo"/>
<text x="588" y="74" class="combo tap">}</text>
</g>
<g class="combo combopos-15">
<rect rx="6" ry="6" x="129" y="46" width="22" height="20" class="combo"/>
<text x="140" y="56" class="combo tap">[</text>
</g>
<g class="combo combopos-16">
<rect rx="6" ry="6" x="521" y="46" width="22" height="20" class="combo"/>
<text x="532" y="56" class="combo tap">]</text>
</g>
<g class="combo combopos-17">
<rect rx="6" ry="6" x="409" y="126" width="22" height="20" class="combo"/>
<text x="420" y="136" class="combo tap">&gt;</text>
</g>
<g class="combo combopos-18">
<rect rx="6" ry="6" x="101" y="27" width="22" height="20" class="combo"/>
<text x="112" y="37" class="combo tap">=</text>
</g>
<g class="combo combopos-19">
<rect rx="6" ry="6" x="549" y="27" width="22" height="20" class="combo"/>
<text x="560" y="37" class="combo tap">-</text>
</g>
<g class="combo combopos-20">
<rect rx="6" ry="6" x="633" y="155" width="22" height="20" class="combo"/>
<text x="644" y="165" class="combo tap">|</text>
</g>
<g class="combo combopos-21">
<rect rx="6" ry="6" x="101" y="139" width="22" height="20" class="combo"/>
<text x="112" y="149" class="combo tap">&#x27;</text>
</g>
<g class="combo combopos-22">
<rect rx="6" ry="6" x="605" y="110" width="22" height="20" class="combo"/>
<text x="616" y="120" class="combo tap">/</text>
</g>
<g class="combo combopos-23">
<rect rx="6" ry="6" x="493" y="26" width="22" height="20" class="combo"/>
<text x="504" y="36" class="combo tap">J</text>
</g>
<g class="combo combopos-24">
<rect rx="6" ry="6" x="605" y="166" width="22" height="20" class="combo"/>
<text x="616" y="176" class="combo tap">\</text>
</g>
</g>
</g>
<g transform="translate(30, 339)" class="layer-L1">
<text x="0" y="28" class="label" id="L1">L1:</text>
<g transform="translate(0, 56)">
<g transform="translate(28, 81)" class="key ghost keypos-0">
<rect rx="6" ry="6" x="-26" y="-26" width="52" height="52" class="key ghost"/>
</g>
<g transform="translate(84, 46)" class="key keypos-1">
<rect rx="6" ry="6" x="-26" y="-26" width="52" height="52" class="key"/>
<text x="0" y="0" class="key tap">▽</text>
</g>
<g transform="translate(140, 28)" class="key keypos-2">
<rect rx="6" ry="6" x="-26" y="-26" width="52" height="52" class="key"/>
<text x="0" y="0" class="key tap">▽</text>
</g>
<g transform="translate(196, 44)" class="key keypos-3">
<rect rx="6" ry="6" x="-26" y="-26" width="52" height="52" class="key"/>
<text x="0" y="0" class="key tap">▽</text>
</g>
<g transform="translate(252, 52)" class="key ghost keypos-4">
<rect rx="6" ry="6" x="-26" y="-26" width="52" height="52" class="key ghost"/>
</g>
<g transform="translate(420, 52)" class="key ghost keypos-5">
<rect rx="6" ry="6" x="-26" y="-26" width="52" height="52" class="key ghost"/>
</g>
<g transform="translate(476, 44)" class="key keypos-6">
<rect rx="6" ry="6" x="-26" y="-26" width="52" height="52" class="key"/>
<text x="0" y="0" class="key tap">▽</text>
</g>
<g transform="translate(532, 28)" class="key keypos-7">
<rect rx="6" ry="6" x="-26" y="-26" width="52" height="52" class="key"/>
<text x="0" y="0" class="key tap">▽</text>
</g>
<g transform="translate(588, 46)" class="key keypos-8">
<rect rx="6" ry="6" x="-26" y="-26" width="52" height="52" class="key"/>
<text x="0" y="0" class="key tap">▽</text>
</g>
<g transform="translate(644, 81)" class="key ghost keypos-9">
<rect rx="6" ry="6" x="-26" y="-26" width="52" height="52" class="key ghost"/>
</g>
<g transform="translate(28, 137)" class="key keypos-10">
<rect rx="6" ry="6" x="-26" y="-26" width="52" height="52" class="key"/>
<text x="0" y="0" class="key tap">▽</text>
</g>
<g transform="translate(84, 102)" class="key keypos-11">
<rect rx="6" ry="6" x="-26" y="-26" width="52" height="52" class="key"/>
<text x="0" y="0" class="key tap">X</text>
<text x="0" y="-24" class="key shifted">LGUI+</text>
</g>
<g transform="translate(140, 84)" class="key keypos-12">
<rect rx="6" ry="6" x="-26" y="-26" width="52" height="52" class="key"/>
<text x="0" y="0" class="key tap">C</text>
<text x="0" y="-24" class="key shifted">LGUI+</text>
</g>
<g transform="translate(196, 100)" class="key keypos-13">
<rect rx="6" ry="6" x="-26" y="-26" width="52" height="52" class="key"/>
<text x="0" y="0" class="key tap">V</text>
<text x="0" y="-24" class="key shifted">LGUI+</text>
</g>
<g transform="translate(252, 108)" class="key keypos-14">
<rect rx="6" ry="6" x="-26" y="-26" width="52" height="52" class="key"/>
<text x="0" y="0" class="key tap">▽</text>
</g>
<g transform="translate(420, 108)" class="key keypos-15">
<rect rx="6" ry="6" x="-26" y="-26" width="52" height="52" class="key"/>
<text x="0" y="0" class="key tap">Left</text>
</g>
<g transform="translate(476, 100)" class="key keypos-16">
<rect rx="6" ry="6" x="-26" y="-26" width="52" height="52" class="key"/>
<text x="0" y="0" class="key tap">Down</text>
</g>
<g transform="translate(532, 84)" class="key keypos-17">
<rect rx="6" ry="6" x="-26" y="-26" width="52" height="52" class="key"/>
<text x="0" y="0" class="key tap">Up</text>
</g>
<g transform="translate(588, 102)" class="key keypos-18">
<rect rx="6" ry="6" x="-26" y="-26" width="52" height="52" class="key"/>
<text x="0" y="0" class="key tap">Right</text>
</g>
<g transform="translate(644, 137)" class="key keypos-19">
<rect rx="6" ry="6" x="-26" y="-26" width="52" height="52" class="key"/>
<text x="0" y="0" class="key tap">▽</text>
</g>
<g transform="translate(28, 193)" class="key keypos-20">
<rect rx="6" ry="6" x="-26" y="-26" width="52" height="52" class="key"/>
<text x="0" y="0" class="key tap">▽</text>
</g>
<g transform="translate(84, 158)" class="key keypos-21">
<rect rx="6" ry="6" x="-26" y="-26" width="52" height="52" class="key"/>
<text x="0" y="0" class="key tap">▽</text>
</g>
<g transform="translate(140, 140)" class="key keypos-22">
<rect rx="6" ry="6" x="-26" y="-26" width="52" height="52" class="key"/>
<text x="0" y="0" class="key tap">Z</text>
<text x="0" y="-24" class="key shifted">LGUI+</text>
</g>
<g transform="translate(196, 156)" class="key keypos-23">
<rect rx="6" ry="6" x="-26" y="-26" width="52" height="52" class="key"/>
<text x="0" y="0" class="key tap">Z</text>
<text x="0" y="-24" class="key shifted">SGUI+</text>
</g>
<g transform="translate(252, 164)" class="key keypos-24">
<rect rx="6" ry="6" x="-26" y="-26" width="52" height="52" class="key"/>
<text x="0" y="0" class="key tap">▽</text>
</g>
<g transform="translate(420, 164)" class="key keypos-25">
<rect rx="6" ry="6" x="-26" y="-26" width="52" height="52" class="key"/>
<text x="0" y="0" class="key tap">F</text>
<text x="0" y="-24" class="key shifted">LGUI+</text>
</g>
<g transform="translate(476, 156)" class="key keypos-26">
<rect rx="6" ry="6" x="-26" y="-26" width="52" height="52" class="key"/>
<text x="0" y="0" class="key tap">C</text>
<text x="0" y="-24" class="key shifted">LCTL+</text>
</g>
<g transform="translate(532, 140)" class="key keypos-27">
<rect rx="6" ry="6" x="-26" y="-26" width="52" height="52" class="key"/>
<text x="0" y="0" class="key tap">V</text>
<text x="0" y="-24" class="key shifted">LCTL+</text>
</g>
<g transform="translate(588, 158)" class="key keypos-28">
<rect rx="6" ry="6" x="-26" y="-26" width="52" height="52" class="key"/>
<text x="0" y="0" class="key tap">▽</text>
</g>
<g transform="translate(644, 193)" class="key keypos-29">
<rect rx="6" ry="6" x="-26" y="-26" width="52" height="52" class="key"/>
<text x="0" y="0" class="key tap">▽</text>
</g>
<g transform="translate(221, 221) rotate(15.0)" class="key held keypos-30">
<rect rx="6" ry="6" x="-26" y="-26" width="52" height="52" class="key held"/>
</g>
<g transform="translate(279, 245) rotate(30.0)" class="key keypos-31">
<rect rx="6" ry="6" x="-26" y="-26" width="52" height="52" class="key"/>
<text x="0" y="0" class="key tap">▽</text>
</g>
<g transform="translate(393, 245) rotate(-30.0)" class="key keypos-32">
<rect rx="6" ry="6" x="-26" y="-26" width="52" height="52" class="key"/>
<text x="0" y="0" class="key tap">Bksp</text>
</g>
<g transform="translate(451, 221) rotate(-15.0)" class="key keypos-33">
<rect rx="6" ry="6" x="-26" y="-26" width="52" height="52" class="key"/>
<text x="0" y="0" class="key tap">Del</text>
</g>
</g>
</g>
<g transform="translate(30, 678)" class="layer-L2">
<text x="0" y="28" class="label" id="L2">L2:</text>
<g transform="translate(0, 56)">
<g transform="translate(28, 81)" class="key ghost keypos-0">
<rect rx="6" ry="6" x="-26" y="-26" width="52" height="52" class="key ghost"/>
</g>
<g transform="translate(84, 46)" class="key keypos-1">
<rect rx="6" ry="6" x="-26" y="-26" width="52" height="52" class="key"/>
<text x="0" y="0" class="key tap">@</text>
</g>
<g transform="translate(140, 28)" class="key keypos-2">
<rect rx="6" ry="6" x="-26" y="-26" width="52" height="52" class="key"/>
<text x="0" y="0" class="key tap">#</text>
</g>
<g transform="translate(196, 44)" class="key keypos-3">
<rect rx="6" ry="6" x="-26" y="-26" width="52" height="52" class="key"/>
<text x="0" y="0" class="key tap">$</text>
</g>
<g transform="translate(252, 52)" class="key ghost keypos-4">
<rect rx="6" ry="6" x="-26" y="-26" width="52" height="52" class="key ghost"/>
</g>
<g transform="translate(420, 52)" class="key ghost keypos-5">
<rect rx="6" ry="6" x="-26" y="-26" width="52" height="52" class="key ghost"/>
</g>
<g transform="translate(476, 44)" class="key keypos-6">
<rect rx="6" ry="6" x="-26" y="-26" width="52" height="52" class="key"/>
<text x="0" y="0" class="key tap">▽</text>
</g>
<g transform="translate(532, 28)" class="key keypos-7">
<rect rx="6" ry="6" x="-26" y="-26" width="52" height="52" class="key"/>
<text x="0" y="0" class="key tap">▽</text>
</g>
<g transform="translate(588, 46)" class="key keypos-8">
<rect rx="6" ry="6" x="-26" y="-26" width="52" height="52" class="key"/>
<text x="0" y="0" class="key tap">▽</text>
</g>
<g transform="translate(644, 81)" class="key ghost keypos-9">
<rect rx="6" ry="6" x="-26" y="-26" width="52" height="52" class="key ghost"/>
</g>
<g transform="translate(28, 137)" class="key keypos-10">
<rect rx="6" ry="6" x="-26" y="-26" width="52" height="52" class="key"/>
<text x="0" y="0" class="key tap">*</text>
</g>
<g transform="translate(84, 102)" class="key keypos-11">
<rect rx="6" ry="6" x="-26" y="-26" width="52" height="52" class="key"/>
<text x="0" y="0" class="key tap">\</text>
</g>
<g transform="translate(140, 84)" class="key keypos-12">
<rect rx="6" ry="6" x="-26" y="-26" width="52" height="52" class="key"/>
<text x="0" y="0" class="key tap">+</text>
</g>
<g transform="translate(196, 100)" class="key keypos-13">
<rect rx="6" ry="6" x="-26" y="-26" width="52" height="52" class="key"/>
<text x="0" y="0" class="key tap">`</text>
</g>
<g transform="translate(252, 108)" class="key keypos-14">
<rect rx="6" ry="6" x="-26" y="-26" width="52" height="52" class="key"/>
<text x="0" y="0" class="key tap">&amp;</text>
</g>
<g transform="translate(420, 108)" class="key keypos-15">
<rect rx="6" ry="6" x="-26" y="-26" width="52" height="52" class="key"/>
<text x="0" y="0" class="key tap">!</text>
</g>
<g transform="translate(476, 100)" class="key keypos-16">
<rect rx="6" ry="6" x="-26" y="-26" width="52" height="52" class="key"/>
<text x="0" y="0" class="key tap">?</text>
</g>
<g transform="translate(532, 84)" class="key keypos-17">
<rect rx="6" ry="6" x="-26" y="-26" width="52" height="52" class="key"/>
<text x="0" y="0" class="key tap">
<tspan x="0" dy="-0.5em">#</tspan><tspan x="0" dy="1.0em">(uk)</tspan>
</text>
</g>
<g transform="translate(588, 102)" class="key keypos-18">
<rect rx="6" ry="6" x="-26" y="-26" width="52" height="52" class="key"/>
<text x="0" y="0" class="key tap">~</text>
</g>
<g transform="translate(644, 137)" class="key keypos-19">
<rect rx="6" ry="6" x="-26" y="-26" width="52" height="52" class="key"/>
<text x="0" y="0" class="key tap">▽</text>
</g>
<g transform="translate(28, 193)" class="key keypos-20">
<rect rx="6" ry="6" x="-26" y="-26" width="52" height="52" class="key"/>
<text x="0" y="0" class="key tap">▽</text>
</g>
<g transform="translate(84, 158)" class="key keypos-21">
<rect rx="6" ry="6" x="-26" y="-26" width="52" height="52" class="key"/>
<text x="0" y="0" class="key tap">▽</text>
</g>
<g transform="translate(140, 140)" class="key keypos-22">
<rect rx="6" ry="6" x="-26" y="-26" width="52" height="52" class="key"/>
<text x="0" y="0" class="key tap">▽</text>
</g>
<g transform="translate(196, 156)" class="key keypos-23">
<rect rx="6" ry="6" x="-26" y="-26" width="52" height="52" class="key"/>
<text x="0" y="0" class="key tap">▽</text>
</g>
<g transform="translate(252, 164)" class="key keypos-24">
<rect rx="6" ry="6" x="-26" y="-26" width="52" height="52" class="key"/>
<text x="0" y="0" class="key tap">^</text>
</g>
<g transform="translate(420, 164)" class="key keypos-25">
<rect rx="6" ry="6" x="-26" y="-26" width="52" height="52" class="key"/>
<text x="0" y="0" class="key tap">▽</text>
</g>
<g transform="translate(476, 156)" class="key keypos-26">
<rect rx="6" ry="6" x="-26" y="-26" width="52" height="52" class="key"/>
<text x="0" y="0" class="key tap">▽</text>
</g>
<g transform="translate(532, 140)" class="key keypos-27">
<rect rx="6" ry="6" x="-26" y="-26" width="52" height="52" class="key"/>
<text x="0" y="0" class="key tap">▽</text>
</g>
<g transform="translate(588, 158)" class="key keypos-28">
<rect rx="6" ry="6" x="-26" y="-26" width="52" height="52" class="key"/>
<text x="0" y="0" class="key tap">▽</text>
</g>
<g transform="translate(644, 193)" class="key keypos-29">
<rect rx="6" ry="6" x="-26" y="-26" width="52" height="52" class="key"/>
<text x="0" y="0" class="key tap">▽</text>
</g>
<g transform="translate(221, 221) rotate(15.0)" class="key keypos-30">
<rect rx="6" ry="6" x="-26" y="-26" width="52" height="52" class="key"/>
<text x="0" y="0" class="key tap">▽</text>
</g>
<g transform="translate(279, 245) rotate(30.0)" class="key keypos-31">
<rect rx="6" ry="6" x="-26" y="-26" width="52" height="52" class="key"/>
<text x="0" y="0" class="key tap">Space</text>
</g>
<g transform="translate(393, 245) rotate(-30.0)" class="key keypos-32">
<rect rx="6" ry="6" x="-26" y="-26" width="52" height="52" class="key"/>
<text x="0" y="0" class="key tap">▽</text>
</g>
<g transform="translate(451, 221) rotate(-15.0)" class="key held keypos-33">
<rect rx="6" ry="6" x="-26" y="-26" width="52" height="52" class="key held"/>
</g>
</g>
</g>
<g transform="translate(30, 1016)" class="layer-L3">
<text x="0" y="28" class="label" id="L3">L3:</text>
<g transform="translate(0, 56)">
<g transform="translate(28, 81)" class="key ghost keypos-0">
<rect rx="6" ry="6" x="-26" y="-26" width="52" height="52" class="key ghost"/>
</g>
<g transform="translate(84, 46)" class="key keypos-1">
<rect rx="6" ry="6" x="-26" y="-26" width="52" height="52" class="key"/>
<text x="0" y="0" class="key tap">
<tspan x="0" dy="-1.0em">Mouse</tspan><tspan x="0" dy="1.0em">Accel</tspan>
<tspan x="0" dy="1.0em">1</tspan>
</text>
</g>
<g transform="translate(140, 28)" class="key keypos-2">
<rect rx="6" ry="6" x="-26" y="-26" width="52" height="52" class="key"/>
<text x="0" y="0" class="key tap">
<tspan x="0" dy="-0.5em">Mouse</tspan><tspan x="0" dy="1.0em">4</tspan>
</text>
</g>
<g transform="translate(196, 44)" class="key keypos-3">
<rect rx="6" ry="6" x="-26" y="-26" width="52" height="52" class="key"/>
<text x="0" y="0" class="key tap">
<tspan x="0" dy="-0.5em">Mouse</tspan><tspan x="0" dy="1.0em">5</tspan>
</text>
</g>
<g transform="translate(252, 52)" class="key ghost keypos-4">
<rect rx="6" ry="6" x="-26" y="-26" width="52" height="52" class="key ghost"/>
</g>
<g transform="translate(420, 52)" class="key ghost keypos-5">
<rect rx="6" ry="6" x="-26" y="-26" width="52" height="52" class="key ghost"/>
</g>
<g transform="translate(476, 44)" class="key keypos-6">
<rect rx="6" ry="6" x="-26" y="-26" width="52" height="52" class="key"/>
<text x="0" y="0" class="key tap">▽</text>
</g>
<g transform="translate(532, 28)" class="key keypos-7">
<rect rx="6" ry="6" x="-26" y="-26" width="52" height="52" class="key"/>
<text x="0" y="0" class="key tap">▽</text>
</g>
<g transform="translate(588, 46)" class="key keypos-8">
<rect rx="6" ry="6" x="-26" y="-26" width="52" height="52" class="key"/>
<text x="0" y="0" class="key tap">▽</text>
</g>
<g transform="translate(644, 81)" class="key ghost keypos-9">
<rect rx="6" ry="6" x="-26" y="-26" width="52" height="52" class="key ghost"/>
</g>
<g transform="translate(28, 137)" class="key keypos-10">
<rect rx="6" ry="6" x="-26" y="-26" width="52" height="52" class="key"/>
<text x="0" y="0" class="key tap">
<tspan x="0" dy="-0.5em">Vol</tspan><tspan x="0" dy="1.0em">+</tspan>
</text>
</g>
<g transform="translate(84, 102)" class="key keypos-11">
<rect rx="6" ry="6" x="-26" y="-26" width="52" height="52" class="key"/>
<text x="0" y="0" class="key tap">
<tspan x="0" dy="-0.5em">Bright.</tspan><tspan x="0" dy="1.0em">Up</tspan>
</text>
</g>
<g transform="translate(140, 84)" class="key keypos-12">
<rect rx="6" ry="6" x="-26" y="-26" width="52" height="52" class="key"/>
<text x="0" y="0" class="key tap">
<tspan x="0" dy="-1.0em">Mouse</tspan><tspan x="0" dy="1.0em">Wheel</tspan>
<tspan x="0" dy="1.0em">Down</tspan>
</text>
</g>
<g transform="translate(196, 100)" class="key keypos-13">
<rect rx="6" ry="6" x="-26" y="-26" width="52" height="52" class="key"/>
<text x="0" y="0" class="key tap">
<tspan x="0" dy="-1.0em">Mouse</tspan><tspan x="0" dy="1.0em">Wheel</tspan>
<tspan x="0" dy="1.0em">Up</tspan>
</text>
</g>
<g transform="translate(252, 108)" class="key keypos-14">
<rect rx="6" ry="6" x="-26" y="-26" width="52" height="52" class="key"/>
<text x="0" y="0" class="key tap">Mute</text>
</g>
<g transform="translate(420, 108)" class="key keypos-15">
<rect rx="6" ry="6" x="-26" y="-26" width="52" height="52" class="key"/>
<text x="0" y="0" class="key tap">
<tspan x="0" dy="-0.5em">Mouse</tspan><tspan x="0" dy="1.0em">Left</tspan>
</text>
</g>
<g transform="translate(476, 100)" class="key keypos-16">
<rect rx="6" ry="6" x="-26" y="-26" width="52" height="52" class="key"/>
<text x="0" y="0" class="key tap">
<tspan x="0" dy="-0.5em">Mouse</tspan><tspan x="0" dy="1.0em">Down</tspan>
</text>
</g>
<g transform="translate(532, 84)" class="key keypos-17">
<rect rx="6" ry="6" x="-26" y="-26" width="52" height="52" class="key"/>
<text x="0" y="0" class="key tap">
<tspan x="0" dy="-0.5em">Mouse</tspan><tspan x="0" dy="1.0em">Up</tspan>
</text>
</g>
<g transform="translate(588, 102)" class="key keypos-18">
<rect rx="6" ry="6" x="-26" y="-26" width="52" height="52" class="key"/>
<text x="0" y="0" class="key tap">
<tspan x="0" dy="-0.5em">Mouse</tspan><tspan x="0" dy="1.0em">Right</tspan>
</text>
</g>
<g transform="translate(644, 137)" class="key keypos-19">
<rect rx="6" ry="6" x="-26" y="-26" width="52" height="52" class="key"/>
<text x="0" y="0" class="key tap">▽</text>
</g>
<g transform="translate(28, 193)" class="key keypos-20">
<rect rx="6" ry="6" x="-26" y="-26" width="52" height="52" class="key"/>
<text x="0" y="0" class="key tap">
<tspan x="0" dy="-0.5em">Vol</tspan><tspan x="0" dy="1.0em">-</tspan>
</text>
</g>
<g transform="translate(84, 158)" class="key keypos-21">
<rect rx="6" ry="6" x="-26" y="-26" width="52" height="52" class="key"/>
<text x="0" y="0" class="key tap">
<tspan x="0" dy="-0.5em">Bright.</tspan><tspan x="0" dy="1.0em">Down</tspan>
</text>
</g>
<g transform="translate(140, 140)" class="key keypos-22">
<rect rx="6" ry="6" x="-26" y="-26" width="52" height="52" class="key"/>
<text x="0" y="0" class="key tap">End</text>
</g>
<g transform="translate(196, 156)" class="key keypos-23">
<rect rx="6" ry="6" x="-26" y="-26" width="52" height="52" class="key"/>
<text x="0" y="0" class="key tap">Home</text>
</g>
<g transform="translate(252, 164)" class="key keypos-24">
<rect rx="6" ry="6" x="-26" y="-26" width="52" height="52" class="key"/>
<text x="0" y="0" class="key tap">▽</text>
</g>
<g transform="translate(420, 164)" class="key keypos-25">
<rect rx="6" ry="6" x="-26" y="-26" width="52" height="52" class="key"/>
<text x="0" y="0" class="key tap">▽</text>
</g>
<g transform="translate(476, 156)" class="key keypos-26">
<rect rx="6" ry="6" x="-26" y="-26" width="52" height="52" class="key"/>
<text x="0" y="0" class="key tap">-</text>
<text x="0" y="-24" class="key shifted">LGUI+</text>
</g>
<g transform="translate(532, 140)" class="key keypos-27">
<rect rx="6" ry="6" x="-26" y="-26" width="52" height="52" class="key"/>
<text x="0" y="0" class="key tap">+</text>
<text x="0" y="-24" class="key shifted">LGUI+</text>
</g>
<g transform="translate(588, 158)" class="key keypos-28">
<rect rx="6" ry="6" x="-26" y="-26" width="52" height="52" class="key"/>
<text x="0" y="0" class="key tap">▽</text>
</g>
<g transform="translate(644, 193)" class="key keypos-29">
<rect rx="6" ry="6" x="-26" y="-26" width="52" height="52" class="key"/>
<text x="0" y="0" class="key tap">▽</text>
</g>
<g transform="translate(221, 221) rotate(15.0)" class="key keypos-30">
<rect rx="6" ry="6" x="-26" y="-26" width="52" height="52" class="key"/>
<text x="0" y="0" class="key tap">
<tspan x="0" dy="-0.5em">Mouse</tspan><tspan x="0" dy="1.0em">1</tspan>
</text>
</g>
<g transform="translate(279, 245) rotate(30.0)" class="key keypos-31">
<rect rx="6" ry="6" x="-26" y="-26" width="52" height="52" class="key"/>
<text x="0" y="0" class="key tap">
<tspan x="0" dy="-0.5em">Mouse</tspan><tspan x="0" dy="1.0em">2</tspan>
</text>
</g>
<g transform="translate(393, 245) rotate(-30.0)" class="key held keypos-32">
<rect rx="6" ry="6" x="-26" y="-26" width="52" height="52" class="key held"/>
</g>
<g transform="translate(451, 221) rotate(-15.0)" class="key keypos-33">
<rect rx="6" ry="6" x="-26" y="-26" width="52" height="52" class="key"/>
<text x="0" y="0" class="key tap">▽</text>
</g>
</g>
</g>
<g transform="translate(30, 1355)" class="layer-L4">
<text x="0" y="28" class="label" id="L4">L4:</text>
<g transform="translate(0, 56)">
<g transform="translate(28, 81)" class="key ghost keypos-0">
<rect rx="6" ry="6" x="-26" y="-26" width="52" height="52" class="key ghost"/>
</g>
<g transform="translate(84, 46)" class="key keypos-1">
<rect rx="6" ry="6" x="-26" y="-26" width="52" height="52" class="key"/>
<text x="0" y="0" class="key tap">F11</text>
</g>
<g transform="translate(140, 28)" class="key keypos-2">
<rect rx="6" ry="6" x="-26" y="-26" width="52" height="52" class="key"/>
<text x="0" y="0" class="key tap">F12</text>
</g>
<g transform="translate(196, 44)" class="key keypos-3">
<rect rx="6" ry="6" x="-26" y="-26" width="52" height="52" class="key"/>
<text x="0" y="0" class="key tap">▽</text>
</g>
<g transform="translate(252, 52)" class="key ghost keypos-4">
<rect rx="6" ry="6" x="-26" y="-26" width="52" height="52" class="key ghost"/>
</g>
<g transform="translate(420, 52)" class="key ghost keypos-5">
<rect rx="6" ry="6" x="-26" y="-26" width="52" height="52" class="key ghost"/>
</g>
<g transform="translate(476, 44)" class="key keypos-6">
<rect rx="6" ry="6" x="-26" y="-26" width="52" height="52" class="key"/>
<text x="0" y="0" class="key tap">7</text>
</g>
<g transform="translate(532, 28)" class="key keypos-7">
<rect rx="6" ry="6" x="-26" y="-26" width="52" height="52" class="key"/>
<text x="0" y="0" class="key tap">8</text>
</g>
<g transform="translate(588, 46)" class="key keypos-8">
<rect rx="6" ry="6" x="-26" y="-26" width="52" height="52" class="key"/>
<text x="0" y="0" class="key tap">9</text>
</g>
<g transform="translate(644, 81)" class="key ghost keypos-9">
<rect rx="6" ry="6" x="-26" y="-26" width="52" height="52" class="key ghost"/>
</g>
<g transform="translate(28, 137)" class="key keypos-10">
<rect rx="6" ry="6" x="-26" y="-26" width="52" height="52" class="key"/>
<text x="0" y="0" class="key tap">F6</text>
</g>
<g transform="translate(84, 102)" class="key keypos-11">
<rect rx="6" ry="6" x="-26" y="-26" width="52" height="52" class="key"/>
<text x="0" y="0" class="key tap">F7</text>
</g>
<g transform="translate(140, 84)" class="key keypos-12">
<rect rx="6" ry="6" x="-26" y="-26" width="52" height="52" class="key"/>
<text x="0" y="0" class="key tap">F8</text>
</g>
<g transform="translate(196, 100)" class="key keypos-13">
<rect rx="6" ry="6" x="-26" y="-26" width="52" height="52" class="key"/>
<text x="0" y="0" class="key tap">F9</text>
</g>
<g transform="translate(252, 108)" class="key keypos-14">
<rect rx="6" ry="6" x="-26" y="-26" width="52" height="52" class="key"/>
<text x="0" y="0" class="key tap">F10</text>
</g>
<g transform="translate(420, 108)" class="key keypos-15">
<rect rx="6" ry="6" x="-26" y="-26" width="52" height="52" class="key"/>
<text x="0" y="0" class="key tap">▽</text>
</g>
<g transform="translate(476, 100)" class="key keypos-16">
<rect rx="6" ry="6" x="-26" y="-26" width="52" height="52" class="key"/>
<text x="0" y="0" class="key tap">4</text>
</g>
<g transform="translate(532, 84)" class="key keypos-17">
<rect rx="6" ry="6" x="-26" y="-26" width="52" height="52" class="key"/>
<text x="0" y="0" class="key tap">5</text>
</g>
<g transform="translate(588, 102)" class="key keypos-18">
<rect rx="6" ry="6" x="-26" y="-26" width="52" height="52" class="key"/>
<text x="0" y="0" class="key tap">6</text>
</g>
<g transform="translate(644, 137)" class="key keypos-19">
<rect rx="6" ry="6" x="-26" y="-26" width="52" height="52" class="key"/>
<text x="0" y="0" class="key tap">▽</text>
</g>
<g transform="translate(28, 193)" class="key keypos-20">
<rect rx="6" ry="6" x="-26" y="-26" width="52" height="52" class="key"/>
<text x="0" y="0" class="key tap">F1</text>
</g>
<g transform="translate(84, 158)" class="key keypos-21">
<rect rx="6" ry="6" x="-26" y="-26" width="52" height="52" class="key"/>
<text x="0" y="0" class="key tap">F2</text>
</g>
<g transform="translate(140, 140)" class="key keypos-22">
<rect rx="6" ry="6" x="-26" y="-26" width="52" height="52" class="key"/>
<text x="0" y="0" class="key tap">F3</text>
</g>
<g transform="translate(196, 156)" class="key keypos-23">
<rect rx="6" ry="6" x="-26" y="-26" width="52" height="52" class="key"/>
<text x="0" y="0" class="key tap">F4</text>
</g>
<g transform="translate(252, 164)" class="key keypos-24">
<rect rx="6" ry="6" x="-26" y="-26" width="52" height="52" class="key"/>
<text x="0" y="0" class="key tap">F5</text>
</g>
<g transform="translate(420, 164)" class="key keypos-25">
<rect rx="6" ry="6" x="-26" y="-26" width="52" height="52" class="key"/>
<text x="0" y="0" class="key tap">▽</text>
</g>
<g transform="translate(476, 156)" class="key keypos-26">
<rect rx="6" ry="6" x="-26" y="-26" width="52" height="52" class="key"/>
<text x="0" y="0" class="key tap">1</text>
</g>
<g transform="translate(532, 140)" class="key keypos-27">
<rect rx="6" ry="6" x="-26" y="-26" width="52" height="52" class="key"/>
<text x="0" y="0" class="key tap">2</text>
</g>
<g transform="translate(588, 158)" class="key keypos-28">
<rect rx="6" ry="6" x="-26" y="-26" width="52" height="52" class="key"/>
<text x="0" y="0" class="key tap">3</text>
</g>
<g transform="translate(644, 193)" class="key keypos-29">
<rect rx="6" ry="6" x="-26" y="-26" width="52" height="52" class="key"/>
<text x="0" y="0" class="key tap">0</text>
</g>
<g transform="translate(221, 221) rotate(15.0)" class="key keypos-30">
<rect rx="6" ry="6" x="-26" y="-26" width="52" height="52" class="key"/>
<text x="0" y="0" class="key tap">▽</text>
</g>
<g transform="translate(279, 245) rotate(30.0)" class="key held keypos-31">
<rect rx="6" ry="6" x="-26" y="-26" width="52" height="52" class="key held"/>
</g>
<g transform="translate(393, 245) rotate(-30.0)" class="key keypos-32">
<rect rx="6" ry="6" x="-26" y="-26" width="52" height="52" class="key"/>
<text x="0" y="0" class="key tap">Bksp</text>
</g>
<g transform="translate(451, 221) rotate(-15.0)" class="key keypos-33">
<rect rx="6" ry="6" x="-26" y="-26" width="52" height="52" class="key"/>
<text x="0" y="0" class="key tap">Enter</text>
</g>
</g>
</g>
<text x="702.0" y="1722.0" class="footer">Created with <a href="https://github.com/caksoylar/keymap-drawer">keymap-drawer</a></text></svg>
